<svg height="512pt" viewBox="-11 0 512 512.0005" width="512pt" xmlns="http://www.w3.org/2000/svg"><path d="m490 256c0 135.308594-109.691406 245-245 245s-245-109.691406-245-245 109.691406-245 245-245 245 109.691406 245 245zm0 0" fill="#fdd194"/><path d="m420.28125 53.613281v43.8125c0 4.765625-3.335938 8.746094-7.796875 9.75v327.640625c-43.8125 41.058594-102.707031 66.1875-167.488281 66.1875-37.214844 0-72.484375-8.3125-104.074219-23.15625v-461.886718c0-8.8125 7.140625-15.9531255 15.953125-15.9531255h239.652344c8.8125 0 15.957031 7.1406255 15.957031 15.9531255v27.902343c4.460937 1.003907 7.796875 4.984375 7.796875 9.75zm0 0" fill="#8279c0"/><path d="m188.785156 0c-8.8125 0-15.953125 7.144531-15.953125 15.953125v364.046875h-31.90625v-230.289062c-4.464843-1.003907-7.800781-4.984376-7.800781-9.75v-22.539063c0-4.769531 3.335938-8.746094 7.800781-9.75v-21.773437c-4.464843-1.003907-7.800781-4.984376-7.800781-9.75v-22.542969c0-4.765625 3.335938-8.746094 7.800781-9.75v-27.902344c0-8.808594 7.140625-15.953125 15.953125-15.953125zm0 0" fill="#6e61b5"/><path d="m250.117188 468.601562v-1.269531c0-5.523437 4.476562-10 10-10h33.179687c5.519531 0 10 4.476563 10 10v1.269531c0 5.523438-4.480469 10-10 10h-33.179687c-5.523438 0-10-4.476562-10-10zm0 0" fill="#aba4d5"/><path d="m391.214844 47.859375v372.246094c0 8.8125-7.140625 15.953125-15.953125 15.953125h-197.113281c-8.808594 0-15.953126-7.144532-15.953126-15.953125v-372.246094c0-8.808594 7.144532-15.953125 15.953126-15.953125h197.113281c8.8125 0 15.953125 7.144531 15.953125 15.953125zm0 0" fill="#fff5f5"/><path d="m210.054688 436.058594h-31.90625c-8.808594 0-15.953126-7.144532-15.953126-15.953125v-372.246094c0-8.808594 7.144532-15.953125 15.953126-15.953125h31.910156c-8.8125 0-15.953125 7.144531-15.953125 15.953125v372.246094c-.003907 8.8125 7.140625 15.953125 15.949219 15.953125zm0 0" fill="#ececf1"/><path d="m369 315v10c0 2.761719-2.238281 5-5 5h-150c-2.761719 0-5-2.238281-5-5v-10c0-2.761719 2.238281-5 5-5h150c2.761719 0 5 2.238281 5 5zm-20 40c0-2.761719-2.238281-5-5-5h-160c-2.761719 0-5 2.238281-5 5v10c0 2.761719 2.238281 5 5 5h160c2.761719 0 5-2.238281 5-5zm10 35c-5.523438 0-10 4.476562-10 10s4.476562 10 10 10 10-4.476562 10-10-4.476562-10-10-10zm-30 0c-5.523438 0-10 4.476562-10 10s4.476562 10 10 10 10-4.476562 10-10-4.476562-10-10-10zm-135-310c8.285156 0 15-6.714844 15-15s-6.714844-15-15-15-15 6.714844-15 15 6.714844 15 15 15zm0 0" fill="#d3d3d8"/><path d="m364 280h-180c-2.761719 0-5-2.238281-5-5v-180c0-2.761719 2.238281-5 5-5h180c2.761719 0 5 2.238281 5 5v180c0 2.761719-2.238281 5-5 5zm0 0" fill="#b0dde9"/><path d="m299 280h-50l10-110h30zm0 0" fill="#b77d72"/><path d="m279 190.355469c0 2.761719-2.238281 5-5 5h-42.0625v-13.285157c0-4.453124-5.382812-6.683593-8.535156-3.535156l-16.820313 16.820313h-12.582031c-2.761719 0-5-2.238281-5-5 0-19.328125 15.671875-35 35-35h20c19.332031 0 35 15.667969 35 35zm0 0" fill="#22b27f"/><path d="m359 190.355469c0 2.761719-2.238281 5-5 5h-12.582031l-16.820313-16.820313c-3.152344-3.148437-8.535156-.917968-8.535156 3.535156v13.285157h-42.0625c-.363281 0-4.398438-.222657-5.640625-1.464844l-62.25-62.25c-1.953125-1.953125-1.953125-5.117187 0-7.070313 13.667969-13.667968 35.828125-13.667968 49.496094 0l15.960937 15.960938c.539063-.621094 1.09375-1.230469 1.683594-1.820312l14.144531-14.140626c13.667969-13.667968 35.828125-13.667968 49.496094 0 1.953125 1.953126 1.953125 5.117188 0 7.070313l-23.714844 23.710937h10.824219c19.332031.003907 35 15.671876 35 35.003907zm0 0" fill="#57bd91"/><path d="m183.5625 314.152344c31.09375-26.824219 78.453125-21.453125 102.753906 11.65625 53.8125 77.703125-107.820312 182.339844-107.820312 182.339844-5.707032 5.136718-14.367188 5.136718-20.070313 0 0 0-163.632812-102.632813-107.820312-182.339844 24.296875-33.109375 71.65625-38.480469 102.753906-11.65625l15.101563 13.027344zm0 0" fill="#fd7a7a"/><path d="m193.285156 497.8125c-9.011718 6.59375-14.789062 10.335938-14.789062 10.335938-5.707032 5.132812-14.367188 5.132812-20.070313 0 0 0-163.632812-102.636719-107.820312-182.34375 12.078125-16.457032 29.859375-26.054688 48.507812-28.253907-3.390625 3.1875-6.554687 6.707031-9.414062 10.601563-50.296875 71.832031 62.476562 160.699218 103.585937 189.660156zm0 0" fill="#fd5757"/></svg>